{
  "accessors": [
    {
      "bufferView": 2,
      "componentType": 5126,
      "count": 9963,
      "max": [
        262.66900634765625,
        274.35198974609375,
        125.58799743652344
      ],
      "min": [
        -280.37701416015625,
        -283.77700805664062,
        -7.5621299743652344
      ],
      "type": "VEC3"
    },
    {
      "bufferView": 2,
      "byteOffset": 119556,
      "componentType": 5126,
      "count": 9963,
      "max": [
        0.99985897541046143,
        0.99995726346969604,
        0.99999535083770752
      ],
      "min": [
        -0.99999010562896729,
        -0.99999147653579712,
        -0.99966734647750854
      ],
      "type": "VEC3"
    },
    {
      "bufferView": 3,
      "componentType": 5126,
      "count": 9963,
      "max": [
        0.99992364645004272,
        0.99997508525848389,
        0.9990086555480957,
        1
      ],
      "min": [
        -0.99993866682052612,
        -0.99996989965438843,
        -0.99979430437088013,
        -1
      ],
      "type": "VEC4"
    },
    {
      "bufferView": 1,
      "componentType": 5126,
      "count": 9963,
      "max": [
        0.98482197523117065,
        0.98532700538635254
      ],
      "min": [
        0.011755400337278843,
        0.014623699709773064
      ],
      "type": "VEC2"
    },
    {
      "bufferView": 0,
      "componentType": 5125,
      "count": 25014,
      "max": [
        9962
      ],
      "min": [
        0
      ],
      "type": "SCALAR"
    },
    {
      "bufferView": 2,
      "byteOffset": 239112,
      "componentType": 5126,
      "count": 9997,
      "max": [
        275.00100708007812,
        240.0780029296875,
        126.67800140380859
      ],
      "min": [
        -249.48399353027344,
        -249.55900573730469,
        -7.5586199760437012
      ],
      "type": "VEC3"
    },
    {
      "bufferView": 2,
      "byteOffset": 359076,
      "componentType": 5126,
      "count": 9997,
      "max": [
        0.99999785423278809,
        0.99991434812545776,
        0.99883425235748291
      ],
      "min": [
        -0.99997836351394653,
        -0.99999064207077026,
        -0.99960434436798096
      ],
      "type": "VEC3"
    },
    {
      "bufferView": 3,
      "byteOffset": 159408,
      "componentType": 5126,
      "count": 9997,
      "max": [
        0.99989920854568481,
        0.99970978498458862,
        0.99996626377105713,
        1
      ],
      "min": [
        -0.99989372491836548,
        -0.99968665838241577,
        -0.99997138977050781,
        -1
      ],
      "type": "VEC4"
    },
    {
      "bufferView": 1,
      "byteOffset": 79704,
      "componentType": 5126,
      "count": 9997,
      "max": [
        0.9818120002746582,
        0.98532700538635254
      ],
      "min": [
        0.011755400337278843,
        0.014623699709773064
      ],
      "type": "VEC2"
    },
    {
      "bufferView": 0,
      "byteOffset": 100056,
      "componentType": 5125,
      "count": 21756,
      "max": [
        9996
      ],
      "min": [
        0
      ],
      "type": "SCALAR"
    },
    {
      "bufferView": 2,
      "byteOffset": 479040,
      "componentType": 5126,
      "count": 9998,
      "max": [
        200.1820068359375,
        195.45100402832031,
        123.23200225830078
      ],
      "min": [
        -215.74200439453125,
        -219.46400451660156,
        -7.5641498565673828
      ],
      "type": "VEC3"
    },
    {
      "bufferView": 2,
      "byteOffset": 599016,
      "componentType": 5126,
      "count": 9998,
      "max": [
        0.99983435869216919,
        0.99995589256286621,
        1
      ],
      "min": [
        -0.9999813437461853,
        -0.99986785650253296,
        -0.98112434148788452
      ],
      "type": "VEC3"
    },
    {
      "bufferView": 3,
      "byteOffset": 319360,
      "componentType": 5126,
      "count": 9998,
      "max": [
        0.99997514486312866,
        0.99996072053909302,
        0.99979704618453979,
        1
      ],
      "min": [
        -0.99998331069946289,
        -0.99989521503448486,
        -0.99995434284210205,
        -1
      ],
      "type": "VEC4"
    },
    {
      "bufferView": 1,
      "byteOffset": 159680,
      "componentType": 5126,
      "count": 9998,
      "max": [
        0.98482197523117065,
        0.98532700538635254
      ],
      "min": [
        0.011755400337278843,
        0.014623699709773064
      ],
      "type": "VEC2"
    },
    {
      "bufferView": 0,
      "byteOffset": 187080,
      "componentType": 5125,
      "count": 30138,
      "max": [
        9997
      ],
      "min": [
        0
      ],
      "type": "SCALAR"
    },
    {
      "bufferView": 2,
      "byteOffset": 718992,
      "componentType": 5126,
      "count": 4729,
      "max": [
        203.77000427246094,
        160.80499267578125,
        158.75199890136719
      ],
      "min": [
        -202.48599243164062,
        -214.6199951171875,
        -7.5671501159667969
      ],
      "type": "VEC3"
    },
    {
      "bufferView": 2,
      "byteOffset": 775740,
      "componentType": 5126,
      "count": 4729,
      "max": [
        0.99991434812545776,
        0.99999386072158813,
        0.99995875358581543
      ],
      "min": [
        -0.99976354837417603,
        -0.99999088048934937,
        -0.99826699495315552
      ],
      "type": "VEC3"
    },
    {
      "bufferView": 3,
      "byteOffset": 479328,
      "componentType": 5126,
      "count": 4729,
      "max": [
        0.99981766939163208,
        0.99950426816940308,
        0.99948334693908691,
        1
      ],
      "min": [
        -0.9997556209564209,
        -0.99997591972351074,
        -0.99976152181625366,
        -1
      ],
      "type": "VEC4"
    },
    {
      "bufferView": 1,
      "byteOffset": 239664,
      "componentType": 5126,
      "count": 4729,
      "max": [
        0.98482197523117065,
        0.9854850172996521
      ],
      "min": [
        0.011755400337278843,
        0.010165099985897541
      ],
      "type": "VEC2"
    },
    {
      "bufferView": 0,
      "byteOffset": 307632,
      "componentType": 5125,
      "count": 11868,
      "max": [
        4728
      ],
      "min": [
        0
      ],
      "type": "SCALAR"
    }
  ],
  "asset": {
    "extras": {
      "author": "ztrztr (https://sketchfab.com/ztrztr)",
      "license": "CC-BY-4.0 (http://creativecommons.org/licenses/by/4.0/)",
      "source": "https://sketchfab.com/3d-models/set-5-023-3207cbf6f035474a83d9092ca726324a",
      "title": "Set 5 023"
    },
    "generator": "Sketchfab-6.24.0",
    "version": "2.0"
  },
  "bufferViews": [
    {
      "buffer": 0,
      "byteLength": 355104,
      "byteOffset": 0,
      "name": "floatBufferViews",
      "target": 34963
    },
    {
      "buffer": 0,
      "byteLength": 277496,
      "byteOffset": 355104,
      "byteStride": 8,
      "name": "floatBufferViews",
      "target": 34962
    },
    {
      "buffer": 0,
      "byteLength": 832488,
      "byteOffset": 632600,
      "byteStride": 12,
      "name": "floatBufferViews",
      "target": 34962
    },
    {
      "buffer": 0,
      "byteLength": 554992,
      "byteOffset": 1465088,
      "byteStride": 16,
      "name": "floatBufferViews",
      "target": 34962
    }
  ],
  "buffers": [
    {
      "byteLength": 2020080,
      "uri": "scene.bin"
    }
  ],
  "images": [
    {
      "uri": "textures/AM124_116_medium_v2_01_baseColor.jpeg"
    }
  ],
  "materials": [
    {
      "doubleSided": true,
      "emissiveFactor": [
        0,
        0,
        0
      ],
      "name": "AM124_116_medium_v2_01",
      "pbrMetallicRoughness": {
        "baseColorFactor": [
          1,
          1,
          1,
          1
        ],
        "baseColorTexture": {
          "index": 0,
          "texCoord": 0
        },
        "metallicFactor": 0,
        "roughnessFactor": 1
      }
    }
  ],
  "meshes": [
    {
      "primitives": [
        {
          "attributes": {
            "NORMAL": 1,
            "POSITION": 0,
            "TANGENT": 2,
            "TEXCOORD_0": 3
          },
          "indices": 4,
          "material": 0,
          "mode": 4
        }
      ]
    },
    {
      "primitives": [
        {
          "attributes": {
            "NORMAL": 6,
            "POSITION": 5,
            "TANGENT": 7,
            "TEXCOORD_0": 8
          },
          "indices": 9,
          "material": 0,
          "mode": 4
        }
      ]
    },
    {
      "primitives": [
        {
          "attributes": {
            "NORMAL": 11,
            "POSITION": 10,
            "TANGENT": 12,
            "TEXCOORD_0": 13
          },
          "indices": 14,
          "material": 0,
          "mode": 4
        }
      ]
    },
    {
      "primitives": [
        {
          "attributes": {
            "NORMAL": 16,
            "POSITION": 15,
            "TANGENT": 17,
            "TEXCOORD_0": 18
          },
          "indices": 19,
          "material": 0,
          "mode": 4
        }
      ]
    }
  ],
  "nodes": [
    {
      "children": [
        1
      ],
      "name": "RootNode (gltf orientation matrix)",
      "rotation": [
        -0.70710678118654746,
        -0,
        -0,
        0.70710678118654757
      ]
    },
    {
      "children": [
        2
      ],
      "name": "RootNode (model correction matrix)"
    },
    {
      "children": [
        3,
        4,
        5,
        6
      ],
      "name": "Grass_023.obj.cleaner.materialmerger.gles"
    },
    {
      "mesh": 0,
      "name": ""
    },
    {
      "mesh": 1,
      "name": ""
    },
    {
      "mesh": 2,
      "name": ""
    },
    {
      "mesh": 3,
      "name": ""
    }
  ],
  "samplers": [
    {
      "magFilter": 9729,
      "minFilter": 9987,
      "wrapS": 10497,
      "wrapT": 10497
    }
  ],
  "scene": 0,
  "scenes": [
    {
      "name": "OSG_Scene",
      "nodes": [
        0
      ]
    }
  ],
  "textures": [
    {
      "sampler": 0,
      "source": 0
    }
  ]
}

