{
  "accessors": [
    {
      "bufferView": 2,
      "componentType": 5126,
      "count": 630,
      "max": [
        0.019591901451349258,
        0.48849073052406311,
        0.020023947581648827
      ],
      "min": [
        -0.019591901451349258,
        -0.51270496845245361,
        -0.17108242213726044
      ],
      "type": "VEC3"
    },
    {
      "bufferView": 2,
      "byteOffset": 7560,
      "componentType": 5126,
      "count": 630,
      "max": [
        1,
        1,
        1
      ],
      "min": [
        -1,
        -1,
        -1
      ],
      "type": "VEC3"
    },
    {
      "bufferView": 1,
      "componentType": 5126,
      "count": 630,
      "max": [
        0.98718094825744629,
        0.98852431774139404
      ],
      "min": [
        0.050230503082275391,
        0.017676383256912231
      ],
      "type": "VEC2"
    },
    {
      "bufferView": 0,
      "componentType": 5125,
      "count": 2796,
      "max": [
        629
      ],
      "min": [
        0
      ],
      "type": "SCALAR"
    },
    {
      "bufferView": 2,
      "byteOffset": 15120,
      "componentType": 5126,
      "count": 84,
      "max": [
        0.022089339792728424,
        0.018863892182707787,
        0.026047710329294205
      ],
      "min": [
        -0.022089339792728424,
        -0.24899773299694061,
        -0.024389412254095078
      ],
      "type": "VEC3"
    },
    {
      "bufferView": 2,
      "byteOffset": 16128,
      "componentType": 5126,
      "count": 84,
      "max": [
        0.99891287088394165,
        0.68951791524887085,
        0.84851992130279541
      ],
      "min": [
        -0.99891287088394165,
        -0.68951791524887085,
        -0.87287271022796631
      ],
      "type": "VEC3"
    },
    {
      "bufferView": 1,
      "byteOffset": 5040,
      "componentType": 5126,
      "count": 84,
      "max": [
        0.88848024606704712,
        0.91318058967590332
      ],
      "min": [
        0.32143250107765198,
        0.017676383256912231
      ],
      "type": "VEC2"
    },
    {
      "bufferView": 0,
      "byteOffset": 11184,
      "componentType": 5125,
      "count": 276,
      "max": [
        83
      ],
      "min": [
        0
      ],
      "type": "SCALAR"
    },
    {
      "bufferView": 2,
      "byteOffset": 17136,
      "componentType": 5126,
      "count": 68,
      "max": [
        0.0043494189158082008,
        5.5496744977290291e-09,
        0.00087255798280239105
      ],
      "min": [
        -0.0043494189158082008,
        -0.019094439223408699,
        -0.025252856314182281
      ],
      "type": "VEC3"
    },
    {
      "bufferView": 2,
      "byteOffset": 17952,
      "componentType": 5126,
      "count": 68,
      "max": [
        0.82141846418380737,
        0.99845963716506958,
        0.60348469018936157
      ],
      "min": [
        -0.82141846418380737,
        -0.98990559577941895,
        -0.94123345613479614
      ],
      "type": "VEC3"
    },
    {
      "bufferView": 1,
      "byteOffset": 5712,
      "componentType": 5126,
      "count": 68,
      "max": [
        0.93883705139160156,
        0.8845820426940918
      ],
      "min": [
        0.91105073690414429,
        0.82824158668518066
      ],
      "type": "VEC2"
    },
    {
      "bufferView": 0,
      "byteOffset": 12288,
      "componentType": 5125,
      "count": 324,
      "max": [
        67
      ],
      "min": [
        0
      ],
      "type": "SCALAR"
    }
  ],
  "asset": {
    "extras": {
      "author": "FireWarden (https://sketchfab.com/Airsoftaaja)",
      "license": "CC-BY-4.0 (http://creativecommons.org/licenses/by/4.0/)",
      "source": "https://sketchfab.com/3d-models/shotgun-acacf7f5a1a34b3b9fbe3c6d283a4fc8",
      "title": "Shotgun"
    },
    "generator": "Sketchfab-7.82.0",
    "version": "2.0"
  },
  "bufferViews": [
    {
      "buffer": 0,
      "byteLength": 13584,
      "byteOffset": 0,
      "name": "floatBufferViews",
      "target": 34963
    },
    {
      "buffer": 0,
      "byteLength": 6256,
      "byteOffset": 13584,
      "byteStride": 8,
      "name": "floatBufferViews",
      "target": 34962
    },
    {
      "buffer": 0,
      "byteLength": 18768,
      "byteOffset": 19840,
      "byteStride": 12,
      "name": "floatBufferViews",
      "target": 34962
    }
  ],
  "buffers": [
    {
      "byteLength": 38608,
      "uri": "scene.bin"
    }
  ],
  "images": [
    {
      "uri": "textures/Shotgun_mat_baseColor.png"
    }
  ],
  "materials": [
    {
      "doubleSided": true,
      "name": "Shotgun_mat",
      "pbrMetallicRoughness": {
        "baseColorFactor": [
          1,
          1,
          1,
          1
        ],
        "baseColorTexture": {
          "index": 0,
          "texCoord": 0
        },
        "metallicFactor": 0,
        "roughnessFactor": 0.80404082057734572
      }
    }
  ],
  "meshes": [
    {
      "name": "Shotgun_Shotgun_mat_0",
      "primitives": [
        {
          "attributes": {
            "NORMAL": 1,
            "POSITION": 0,
            "TEXCOORD_0": 2
          },
          "indices": 3,
          "material": 0,
          "mode": 4
        }
      ]
    },
    {
      "name": "Pump_Shotgun_mat_0",
      "primitives": [
        {
          "attributes": {
            "NORMAL": 5,
            "POSITION": 4,
            "TEXCOORD_0": 6
          },
          "indices": 7,
          "material": 0,
          "mode": 4
        }
      ]
    },
    {
      "name": "Trigger_Shotgun_mat_0",
      "primitives": [
        {
          "attributes": {
            "NORMAL": 9,
            "POSITION": 8,
            "TEXCOORD_0": 10
          },
          "indices": 11,
          "material": 0,
          "mode": 4
        }
      ]
    }
  ],
  "nodes": [
    {
      "children": [
        1
      ],
      "name": "RootNode (gltf orientation matrix)",
      "rotation": [
        -0.70710678118654746,
        -0,
        -0,
        0.70710678118654757
      ]
    },
    {
      "children": [
        2
      ],
      "name": "RootNode (model correction matrix)"
    },
    {
      "children": [
        3
      ],
      "matrix": [
        1,
        0,
        0,
        0,
        0,
        0,
        1,
        0,
        0,
        -1,
        0,
        0,
        0,
        0,
        0,
        1
      ],
      "name": "f9a86f825b7a43b787249f961c250188.fbx"
    },
    {
      "children": [
        4,
        6,
        8
      ],
      "name": "RootNode"
    },
    {
      "children": [
        5
      ],
      "matrix": [
        100,
        0,
        0,
        0,
        0,
        -1.6292067939183141e-05,
        -99.999999999998678,
        0,
        0,
        99.999999999998678,
        -1.6292067939183141e-05,
        0,
        6.4786784572908648e-15,
        30.045434951782227,
        -21.260570526123047,
        1
      ],
      "name": "Shotgun"
    },
    {
      "mesh": 0,
      "name": "Shotgun_Shotgun_mat_0"
    },
    {
      "children": [
        7
      ],
      "matrix": [
        100,
        0,
        0,
        0,
        0,
        -1.6292067939183141e-05,
        -99.999999999998678,
        0,
        0,
        99.999999999998678,
        -1.6292067939183141e-05,
        0,
        5.8358253430710553e-15,
        27.047958374023438,
        -44.636936187744141,
        1
      ],
      "name": "Pump"
    },
    {
      "mesh": 1,
      "name": "Pump_Shotgun_mat_0"
    },
    {
      "children": [
        9
      ],
      "matrix": [
        100,
        0,
        0,
        0,
        0,
        -1.6292067939183141e-05,
        -99.999999999998678,
        0,
        0,
        99.999999999998678,
        -1.6292067939183141e-05,
        0,
        5.4476843534530337e-15,
        26.100482940673828,
        -7.7973423004150391,
        1
      ],
      "name": "Trigger"
    },
    {
      "mesh": 2,
      "name": "Trigger_Shotgun_mat_0"
    }
  ],
  "samplers": [
    {
      "magFilter": 9729,
      "minFilter": 9987,
      "wrapS": 10497,
      "wrapT": 10497
    }
  ],
  "scene": 0,
  "scenes": [
    {
      "name": "OSG_Scene",
      "nodes": [
        0
      ]
    }
  ],
  "textures": [
    {
      "sampler": 0,
      "source": 0
    }
  ]
}

